<svg xmlns="http://www.w3.org/2000/svg" width="512" height="512" viewBox="0 0 512 512" role="img" aria-label="KoK">
  <defs>
    <linearGradient id="kok-bg" x1="72" y1="58" x2="448" y2="466" gradientUnits="userSpaceOnUse">
      <stop offset="0" stop-color="#20304f"/>
      <stop offset="1" stop-color="#101a30"/>
    </linearGradient>
    <linearGradient id="kok-pin" x1="204" y1="162" x2="316" y2="334" gradientUnits="userSpaceOnUse">
      <stop offset="0" stop-color="#ff8a76"/>
      <stop offset="1" stop-color="#ff4f62"/>
    </linearGradient>
  </defs>
  <rect width="512" height="512" rx="112" fill="url(#kok-bg)"/>
  <path d="M145 153c43 10 75 36 106 86" fill="none" stroke="#5dd9d0" stroke-width="28" stroke-linecap="round"/>
  <path d="M370 153c-44 10-77 36-108 86" fill="none" stroke="#8d7cff" stroke-width="28" stroke-linecap="round"/>
  <path d="M137 347c49-13 84-43 118-97" fill="none" stroke="#ffd166" stroke-width="28" stroke-linecap="round"/>
  <circle cx="134" cy="150" r="34" fill="#f8fbf7" stroke="#5dd9d0" stroke-width="12"/>
  <circle cx="378" cy="150" r="34" fill="#f8fbf7" stroke="#8d7cff" stroke-width="12"/>
  <circle cx="132" cy="352" r="34" fill="#f8fbf7" stroke="#ffd166" stroke-width="12"/>
  <circle cx="256" cy="256" r="118" fill="#f8fbf7"/>
  <path d="M256 152c-56 0-98 42-98 96 0 70 98 144 98 144s98-74 98-144c0-54-42-96-98-96Z" fill="url(#kok-pin)"/>
  <circle cx="256" cy="242" r="39" fill="#17233c"/>
  <path d="M220 339c23 22 49 39 76 51-16 14-30 24-40 31-10-7-22-17-36-30-13-12-26-25-39-40 12 1 26-3 39-12Z" fill="#ff6b5f"/>
  <path d="M214 196c16-21 41-34 70-33 26 1 50 13 65 33-18-10-39-16-62-16-30 0-55 6-73 16Z" fill="#ffb1a5" opacity=".82"/>
</svg>
