<svg xmlns="http://www.w3.org/2000/svg" width="512" height="512" viewBox="0 0 512 512" role="img" aria-label="KoK">
  <defs>
    <radialGradient id="kok-mask-warm" cx="50%" cy="22%" r="72%">
      <stop offset="0" stop-color="#FFF0EE"/>
      <stop offset=".58" stop-color="#FFF9F7"/>
      <stop offset="1" stop-color="#F8FAFF"/>
    </radialGradient>
    <filter id="kok-mask-mark-shadow" x="82" y="118" width="348" height="238" filterUnits="userSpaceOnUse" color-interpolation-filters="sRGB">
      <feDropShadow dx="0" dy="16" stdDeviation="16" flood-color="#17233C" flood-opacity=".14"/>
    </filter>
  </defs>
  <rect width="512" height="512" fill="#FFFDFC"/>
  <rect width="512" height="512" fill="url(#kok-mask-warm)"/>
  <rect x="20" y="20" width="472" height="472" rx="94" fill="none" stroke="#F2E7E4" stroke-width="4"/>
  <g filter="url(#kok-mask-mark-shadow)">
    <text x="142" y="300" fill="#17233C" font-family="Arial Rounded MT Bold, Arial, sans-serif" font-size="150" font-weight="900" text-anchor="middle">K</text>
    <text x="370" y="300" fill="#17233C" font-family="Arial Rounded MT Bold, Arial, sans-serif" font-size="150" font-weight="900" text-anchor="middle">K</text>
    <path d="M256 150c-52 0-92 39-92 89 0 66 92 136 92 136s92-70 92-136c0-50-40-89-92-89Z" fill="#FF6B5F"/>
    <circle cx="256" cy="236" r="43" fill="#FFFDFC"/>
    <circle cx="256" cy="236" r="18" fill="#17233C"/>
  </g>
  <path d="M156 348c58 40 142 42 200 0" fill="none" stroke="#F2B4AD" stroke-width="16" stroke-linecap="round" opacity=".9"/>
</svg>
